<svg xmlns:x="http://ns.adobe.com/Extensibility/1.0/" xmlns:i="http://ns.adobe.com/AdobeIllustrator/10.0/" xmlns:graph="http://ns.adobe.com/Graphs/1.0/" xmlns="http://www.w3.org/2000/svg" xmlns:xlink="http://www.w3.org/1999/xlink" xmlns:a="http://ns.adobe.com/AdobeSVGViewerExtensions/3.0/" version="1.1" id="Calque_1" x="0" y="0" width="36.5" height="7.7" viewBox="0 0 36.5 7.7" xml:space="preserve" enable-background="new 0 0 36.5 7.7">
<style>
.s0{
	overflow:visible;
}
.s1{
	clip-path:url(#SVGID_2_);
	fill:#49525C;
}
.s2{
	clip-path:url(#SVGID_2_);
}
.s3{
	clip-path:url(#SVGID_4_);
	fill:#49525C;
}

</style>  <defs>
    <rect id="SVGID_1_" x="0" y="0" width="36.5" height="7.7"/>
  </defs>
  <clipPath id="SVGID_2_">
    <use xlink:href="#SVGID_1_" overflow="visible"/>
  </clipPath>
  <path d="M4.8 2L3.9 4.2h1.8L4.8 2zM6.5 6.1L5.8 4.5h-2L3.2 6.1H2.9l2-4.9 2 4.9H6.5z" class="s1"/>
  <defs>
    <rect id="SVGID_3_" x="0" y="0" width="36.5" height="7.7"/>
  </defs>
  <clipPath id="SVGID_4_">
    <use xlink:href="#SVGID_3_" overflow="visible"/>
  </clipPath>
  <path d="M14.9 5.5c-0.3 0.4-0.8 0.6-1.4 0.6 -0.6 0-1.1-0.2-1.4-0.6C12 5.2 11.9 5 11.9 4.4v-3h0.3v3c0 0.6 0 0.8 0.2 1 0.2 0.3 0.7 0.5 1.1 0.5 0.5 0 0.9-0.2 1.1-0.5 0.1-0.2 0.2-0.4 0.2-1v-3h0.3v3C15.1 5 15.1 5.2 14.9 5.5" class="s3"/>
  <path d="M19 6.1c-0.7 0-1.1-0.3-1.4-1L17.8 5c0.3 0.6 0.6 0.9 1.1 0.9 0.6 0 1.2-0.5 1.2-1.1 0-0.3-0.2-0.5-0.5-0.7 -0.1-0.1-0.3-0.1-0.5-0.2l-0.1-0.1 -0.1-0.1 -0.1-0.1C18 3.2 17.8 3 17.8 2.4c0-0.7 0.5-1.2 1.2-1.2 0.5 0 0.9 0.2 1.1 0.7L20 2.1c-0.3-0.4-0.5-0.6-0.9-0.6 -0.5 0-0.9 0.4-0.9 0.9 0 0.4 0.2 0.6 0.8 0.9 0.6 0.3 0.7 0.4 0.9 0.5 0.3 0.2 0.5 0.5 0.5 0.9C20.4 5.5 19.8 6.1 19 6.1" class="s3"/>
  <polygon points="23.8 1.6 23.8 6.1 23.5 6.1 23.5 1.6 22.3 1.6 22.3 1.3 25 1.3 25 1.6 " class="s1"/>
  <defs>
    <rect id="SVGID_5_" x="0" y="0" width="36.5" height="7.7"/>
  </defs>
  <clipPath id="SVGID_6_">
    <use xlink:href="#SVGID_5_" overflow="visible"/>
  </clipPath>
  <path d="M34.1 1.6c-1.2 0-2.1 1-2.1 2.1 0 1.2 1 2.2 2.1 2.2 1.2 0 2.1-1 2.1-2.1C36.2 2.5 35.3 1.6 34.1 1.6M34.1 6.1c-1.4 0-2.5-1.1-2.5-2.5 0-1.3 1.1-2.4 2.5-2.4 1.3 0 2.4 1.1 2.4 2.4C36.5 5 35.4 6.1 34.1 6.1" style="clip-path:url(#SVGID_6_);fill:#49525C"/>
  <polygon points="27.2 6.1 27.2 1.3 29.5 1.3 29.5 1.6 27.5 1.6 27.5 3.3 29.4 3.3 29.4 3.6 27.5 3.6 27.5 5.8 29.5 5.8 29.5 6.1 " class="s1"/>
  <defs>
    <rect id="SVGID_7_" x="0" y="0" width="36.5" height="7.7"/>
  </defs>
  <clipPath id="SVGID_8_">
    <use xlink:href="#SVGID_7_" overflow="visible"/>
  </clipPath>
  <path d="M7.8 7.7V7.4c0.8 0 1.5-0.6 1.5-1.3V1.6H7.8V1.3h1.8v4.8C9.7 7 8.8 7.7 7.8 7.7z" style="clip-path:url(#SVGID_8_);fill:#49525C"/>
  <path d="M1.8 7C0.8 7 0 6.3 0 5.5V0.7h1.8V1H0.3v4.5c0 0.7 0.7 1.3 1.5 1.3V7z" style="clip-path:url(#SVGID_8_);fill:#F49231"/>
  <polygon points="28.9 0 28 0.8 28.2 1 29.2 0.2 " style="clip-path:url(#SVGID_2_);fill:#F49231"/>
  <defs>
    <rect id="SVGID_9_" x="0" y="0" width="36.5" height="7.7"/>
  </defs>
  <clipPath id="SVGID_10_">
    <use xlink:href="#SVGID_9_" overflow="visible"/>
  </clipPath>
  <defs>
    <filter id="Adobe_OpacityMaskFilter" filterUnits="userSpaceOnUse" x="4.1" y="0.7" width="3.8" height="3.4">
      <feColorMatrix type="matrix" values="1"/>
    </filter>
  </defs>
  <mask maskUnits="userSpaceOnUse" x="4.1" y="0.7" width="3.8" height="3.4" id="SVGID_11_">
    <defs>
      <rect id="SVGID_12_" x="1.1" y="-1.7" width="10.2" height="6.8"/>
    </defs>
    <clipPath id="SVGID_13_" clip-path="url(#SVGID_10_)">
      <use xlink:href="#SVGID_12_" overflow="visible"/>
    </clipPath>
    <image width="72" height="48" xlink:href="FD8F5192048B209B.jpg" transform="matrix(0.1412 0 0 0.1412 1.1021 -1.7224)" overflow="visible"/>
  </mask>
  <defs>
    <rect id="SVGID_14_" x="4.1" y="0.7" width="3.8" height="3.4"/>
  </defs>
  <clipPath id="SVGID_15_">
    <use xlink:href="#SVGID_14_" overflow="visible"/>
  </clipPath>
  <rect x="4.1" y="0.7" width="3.8" height="3.4" style="adobe-blending-mode:multiply;adobe-opacity-share:1;clip-path:url(#SVGID_15_);fill:#231F20;opacity:0.1"/>
</svg>
